<svg width="48" height="48" viewBox="0 0 48 48" fill="none" xmlns="http://www.w3.org/2000/svg">
<path d="M24 26C26.1217 26 28.1566 25.1571 29.6569 23.6569C31.1571 22.1566 32 20.1217 32 18C32 15.8783 31.1571 13.8434 29.6569 12.3431C28.1566 10.8429 26.1217 10 24 10C21.8783 10 19.8434 10.8429 18.3431 12.3431C16.8429 13.8434 16 15.8783 16 18C16 20.1217 16.8429 22.1566 18.3431 23.6569C19.8434 25.1571 21.8783 26 24 26ZM24 26C20.8174 26 17.7652 27.2643 15.5147 29.5147C13.2643 31.7652 12 34.8174 12 38V44M24 26C27.1826 26 30.2348 27.2643 32.4853 29.5147C34.7357 31.7652 36 34.8174 36 38V44M26 10C26.808 6.672 30.03 4 34 4C38.344 4 41.96 7.58 42 12C41.96 16.42 38.344 20 34 20M34 20H32M34 20C40.576 20 46 25.372 46 32V36M22 10C21.192 6.672 17.97 4 14 4C9.656 4 6.04 7.58 6 12C6.04 16.42 9.656 20 14 20M14 20H16M14 20C7.424 20 2 25.372 2 32V36" stroke="white" stroke-width="4"/>
</svg>
