<svg width="48" height="48" viewBox="0 0 48 48" fill="none" xmlns="http://www.w3.org/2000/svg">
<path d="M24 44C35.046 44 44 35.046 44 24C44 12.954 35.046 4 24 4C12.954 4 4 12.954 4 24C4 35.046 12.954 44 24 44Z" stroke="white" stroke-width="3" stroke-linecap="round" stroke-linejoin="round"/>
<path d="M5 25L16 29L14 36L16 42M34 41L33 36L28 34V27L34 25L43 26M38 11L37 14L30 15V21L35 19H39L43 21M5 21L10 17L15 16L19 10L17 6" stroke="white" stroke-width="3" stroke-linecap="round" stroke-linejoin="round"/>
</svg>
