<svg width="48" height="48" viewBox="0 0 48 48" fill="none" xmlns="http://www.w3.org/2000/svg">
<g clip-path="url(#clip0_208_164)">
<path fill-rule="evenodd" clip-rule="evenodd" d="M38.3177 2.22865C37.6491 -0.754204 33.4217 -0.737061 32.7806 2.24922L32.7086 2.5818L34.3851 2.9418L32.7051 2.5818C32.3374 4.35046 31.4508 5.96935 30.1585 7.23167C28.8663 8.494 27.2271 9.34245 25.4503 9.66865C22.3783 10.2138 22.3783 14.6504 25.4503 15.1955C27.2268 15.5206 28.8661 16.3678 30.1589 17.6288C31.4517 18.8899 32.3394 20.5076 32.7086 22.2755L32.7771 22.6081C33.4217 25.5909 37.6457 25.6149 38.3177 22.6321L38.4034 22.2447C38.7886 20.4822 39.686 18.8728 40.9828 17.6186C42.2797 16.3645 43.9182 15.5215 45.6926 15.1955C48.7714 14.6504 48.7714 10.2069 45.6926 9.6618C43.9176 9.33643 42.2783 8.49371 40.9808 7.23951C39.6833 5.98531 38.7854 4.3756 38.4 2.61265L38.3177 2.22865ZM24.8503 1.7898C20.8688 -0.181012 16.2792 -0.535273 12.0424 0.801173C7.80565 2.13762 4.25006 5.06116 2.11999 8.95979C-0.0100819 12.8584 -0.549493 17.4299 0.614675 21.7172C1.77884 26.0046 4.55633 29.6754 8.36571 31.9612V35.7121C8.36571 36.7242 8.76776 37.6948 9.48339 38.4104C10.199 39.126 11.1696 39.5281 12.1817 39.5281H22.224C22.7251 39.5281 23.2213 39.4294 23.6843 39.2376C24.1473 39.0458 24.568 38.7648 24.9223 38.4104C25.2767 38.0561 25.5578 37.6354 25.7495 37.1724C25.9413 36.7094 26.04 36.2132 26.04 35.7121V31.9681C27.5349 31.0767 28.8823 29.9658 30.0377 28.6767C30.4097 28.2523 30.5992 27.6983 30.5652 27.135C30.5312 26.5718 30.2764 26.0446 29.856 25.6681C29.4357 25.2916 28.8838 25.0961 28.3202 25.124C27.7566 25.1519 27.2268 25.401 26.8457 25.8172C25.7456 27.0393 24.424 28.0421 22.9509 28.7727C22.5928 28.9503 22.291 29.2238 22.0791 29.5628C21.8673 29.9018 21.7536 30.2929 21.7509 30.6927V35.2458H12.6514V30.6961C12.6496 30.2974 12.5375 29.9071 12.3275 29.5682C12.1176 29.2293 11.8179 28.9552 11.4617 28.7761C8.42981 27.2314 6.12978 24.5528 5.06116 21.3223C3.99254 18.0917 4.24163 14.5699 5.75434 11.5219C7.26705 8.47395 9.92121 6.14584 13.1404 5.04327C16.3595 3.94069 19.8837 4.15269 22.9474 5.63322C23.4561 5.88091 24.042 5.91738 24.5775 5.7347C25.1129 5.55202 25.5544 5.16501 25.8056 4.65808C26.0568 4.15116 26.0973 3.56547 25.9184 3.02877C25.7394 2.49207 25.3555 2.0445 24.8503 1.7898ZM10.7143 43.7144C10.146 43.7144 9.60092 43.9401 9.19906 44.342C8.79719 44.7439 8.57143 45.2889 8.57143 45.8572C8.57143 46.4255 8.79719 46.9706 9.19906 47.3725C9.60092 47.7743 10.146 48.0001 10.7143 48.0001H23.5714C24.1397 48.0001 24.6848 47.7743 25.0867 47.3725C25.4885 46.9706 25.7143 46.4255 25.7143 45.8572C25.7143 45.2889 25.4885 44.7439 25.0867 44.342C24.6848 43.9401 24.1397 43.7144 23.5714 43.7144H10.7143Z" fill="#0A103A"/>
</g>
<defs>
<clipPath id="clip0_208_164">
<rect width="48" height="48" fill="white"/>
</clipPath>
</defs>
</svg>
