<svg width="48" height="48" viewBox="0 0 48 48" fill="none" xmlns="http://www.w3.org/2000/svg">
<g clip-path="url(#clip0_204_14)">
<path d="M37.5 13.5H33.434C32.8109 13.5004 32.2073 13.7177 31.7268 14.1145C31.2464 14.5113 30.9189 15.0629 30.8007 15.6747C30.6824 16.2865 30.7807 16.9204 31.0788 17.4676C31.3768 18.0149 31.8559 18.4414 32.434 18.674L36.562 20.324C37.1414 20.5558 37.6219 20.9822 37.9209 21.5299C38.22 22.0776 38.3188 22.7124 38.2004 23.3251C38.082 23.9378 37.7539 24.4901 37.2723 24.8871C36.7908 25.284 36.1861 25.5007 35.562 25.5H31.5M34.5 13.5V12M34.5 27V25.5" stroke="white" stroke-width="3" stroke-linecap="round" stroke-linejoin="round"/>
<path d="M12.75 31.5L13.5 25.5H16.5V21C16.5 19.0109 15.7098 17.1032 14.3033 15.6967C12.8968 14.2902 10.9891 13.5 9 13.5C7.01088 13.5 5.10322 14.2902 3.6967 15.6967C2.29018 17.1032 1.5 19.0109 1.5 21V25.5H4.5L5.25 31.5M1.5 37.5H46.5M22.5 19.5C22.5 22.6826 23.7643 25.7348 26.0147 27.9853C28.2652 30.2357 31.3174 31.5 34.5 31.5C37.6826 31.5 40.7348 30.2357 42.9853 27.9853C45.2357 25.7348 46.5 22.6826 46.5 19.5C46.5 16.3174 45.2357 13.2652 42.9853 11.0147C40.7348 8.76428 37.6826 7.5 34.5 7.5C31.3174 7.5 28.2652 8.76428 26.0147 11.0147C23.7643 13.2652 22.5 16.3174 22.5 19.5ZM3.75 6.75C3.75 7.43944 3.8858 8.12213 4.14963 8.75909C4.41347 9.39605 4.80018 9.9748 5.28769 10.4623C5.7752 10.9498 6.35395 11.3365 6.99091 11.6004C7.62787 11.8642 8.31056 12 9 12C9.68944 12 10.3721 11.8642 11.0091 11.6004C11.646 11.3365 12.2248 10.9498 12.7123 10.4623C13.1998 9.9748 13.5865 9.39605 13.8504 8.75909C14.1142 8.12213 14.25 7.43944 14.25 6.75C14.25 5.35761 13.6969 4.02226 12.7123 3.03769C11.7277 2.05312 10.3924 1.5 9 1.5C7.60761 1.5 6.27226 2.05312 5.28769 3.03769C4.30312 4.02226 3.75 5.35761 3.75 6.75ZM30 46.5H18L24 39L30 46.5Z" stroke="white" stroke-width="3" stroke-linecap="round" stroke-linejoin="round"/>
</g>
<defs>
<clipPath id="clip0_204_14">
<rect width="48" height="48" fill="white"/>
</clipPath>
</defs>
</svg>
